# xmcd CD database file generated by OrangeCD 6.0
#
# Track frame offsets:
#	183
#	42808
#	50790
#	68833
#	85533
#	106633
#	121180
#	130883
#	144208
#	155900
#	186523
#	216583
#	287070
#	317685
#
# Disc length: 4606 seconds
#
# Revision: 2
# Processed by: cddbd v1.5.2PL0 Copyright (c) Steve Scherf et al.
# Submitted via: OrangeCD 6.0
#
DISCID=cd11fc0e
DTITLE=Stevie Ray Vaughan - Best Of Soul To Soul Sessions
DYEAR=1993
DGENRE=Blues
TTITLE0=Chitlins Con Carne
TTITLE1=Hey Motherfucker
TTITLE2=Hug You Squeeze You (Take 2)
TTITLE3=Hangnails And Boogers
TTITLE4=The Sky Is Crying
TTITLE5=Boot Hill (Take 2)
TTITLE6=You Don't Wanna Hear Me Sing That Shit
TTITLE7=Testify
TTITLE8=Shuffle Thing
TTITLE9=Come On (Part III) (Take 2)
TTITLE10=Maudie
TTITLE11=Life Without You (Take 17)
TTITLE12=Little Wing (Take 3)
TTITLE13=Third Stone From The Sun (Take 2)
EXTD=
EXTT0=
EXTT1=
EXTT2=
EXTT3=
EXTT4=
EXTT5=
EXTT6=
EXTT7=
EXTT8=
EXTT9=
EXTT10=
EXTT11=
EXTT12=
EXTT13=
PLAYORDER=
